<svg version="1.1" xmlns="http://www.w3.org/2000/svg" width="600px" height="600px" viewBox="0 0 602 602"  preserveAspectRatio="xMinYMin meet"><rect width="100%" height="100%" fill="#ffffff" cx="0" cy="0"/><path d="M14,14l14,0 0,14 -14,0 0,-14z M28,14l14,0 0,14 -14,0 0,-14z M42,14l14,0 0,14 -14,0 0,-14z M56,14l14,0 0,14 -14,0 0,-14z M70,14l14,0 0,14 -14,0 0,-14z M84,14l14,0 0,14 -14,0 0,-14z M98,14l14,0 0,14 -14,0 0,-14z M126,14l14,0 0,14 -14,0 0,-14z M154,14l14,0 0,14 -14,0 0,-14z M168,14l14,0 0,14 -14,0 0,-14z M182,14l14,0 0,14 -14,0 0,-14z M196,14l14,0 0,14 -14,0 0,-14z M238,14l14,0 0,14 -14,0 0,-14z M266,14l14,0 0,14 -14,0 0,-14z M322,14l14,0 0,14 -14,0 0,-14z M336,14l14,0 0,14 -14,0 0,-14z M364,14l14,0 0,14 -14,0 0,-14z M392,14l14,0 0,14 -14,0 0,-14z M406,14l14,0 0,14 -14,0 0,-14z M420,14l14,0 0,14 -14,0 0,-14z M434,14l14,0 0,14 -14,0 0,-14z M490,14l14,0 0,14 -14,0 0,-14z M504,14l14,0 0,14 -14,0 0,-14z M518,14l14,0 0,14 -14,0 0,-14z M532,14l14,0 0,14 -14,0 0,-14z M546,14l14,0 0,14 -14,0 0,-14z M560,14l14,0 0,14 -14,0 0,-14z M574,14l14,0 0,14 -14,0 0,-14z M14,28l14,0 0,14 -14,0 0,-14z M98,28l14,0 0,14 -14,0 0,-14z M126,28l14,0 0,14 -14,0 0,-14z M140,28l14,0 0,14 -14,0 0,-14z M154,28l14,0 0,14 -14,0 0,-14z M196,28l14,0 0,14 -14,0 0,-14z M210,28l14,0 0,14 -14,0 0,-14z M280,28l14,0 0,14 -14,0 0,-14z M294,28l14,0 0,14 -14,0 0,-14z M322,28l14,0 0,14 -14,0 0,-14z M406,28l14,0 0,14 -14,0 0,-14z M420,28l14,0 0,14 -14,0 0,-14z M434,28l14,0 0,14 -14,0 0,-14z M448,28l14,0 0,14 -14,0 0,-14z M462,28l14,0 0,14 -14,0 0,-14z M490,28l14,0 0,14 -14,0 0,-14z M574,28l14,0 0,14 -14,0 0,-14z M14,42l14,0 0,14 -14,0 0,-14z M42,42l14,0 0,14 -14,0 0,-14z M56,42l14,0 0,14 -14,0 0,-14z M70,42l14,0 0,14 -14,0 0,-14z M98,42l14,0 0,14 -14,0 0,-14z M126,42l14,0 0,14 -14,0 0,-14z M140,42l14,0 0,14 -14,0 0,-14z M168,42l14,0 0,14 -14,0 0,-14z M210,42l14,0 0,14 -14,0 0,-14z M252,42l14,0 0,14 -14,0 0,-14z M294,42l14,0 0,14 -14,0 0,-14z M308,42l14,0 0,14 -14,0 0,-14z M336,42l14,0 0,14 -14,0 0,-14z M392,42l14,0 0,14 -14,0 0,-14z M420,42l14,0 0,14 -14,0 0,-14z M462,42l14,0 0,14 -14,0 0,-14z M490,42l14,0 0,14 -14,0 0,-14z M518,42l14,0 0,14 -14,0 0,-14z M532,42l14,0 0,14 -14,0 0,-14z M546,42l14,0 0,14 -14,0 0,-14z M574,42l14,0 0,14 -14,0 0,-14z M14,56l14,0 0,14 -14,0 0,-14z M42,56l14,0 0,14 -14,0 0,-14z M56,56l14,0 0,14 -14,0 0,-14z M70,56l14,0 0,14 -14,0 0,-14z M98,56l14,0 0,14 -14,0 0,-14z M126,56l14,0 0,14 -14,0 0,-14z M238,56l14,0 0,14 -14,0 0,-14z M266,56l14,0 0,14 -14,0 0,-14z M280,56l14,0 0,14 -14,0 0,-14z M294,56l14,0 0,14 -14,0 0,-14z M350,56l14,0 0,14 -14,0 0,-14z M364,56l14,0 0,14 -14,0 0,-14z M378,56l14,0 0,14 -14,0 0,-14z M406,56l14,0 0,14 -14,0 0,-14z M448,56l14,0 0,14 -14,0 0,-14z M462,56l14,0 0,14 -14,0 0,-14z M490,56l14,0 0,14 -14,0 0,-14z M518,56l14,0 0,14 -14,0 0,-14z M532,56l14,0 0,14 -14,0 0,-14z M546,56l14,0 0,14 -14,0 0,-14z M574,56l14,0 0,14 -14,0 0,-14z M14,70l14,0 0,14 -14,0 0,-14z M42,70l14,0 0,14 -14,0 0,-14z M56,70l14,0 0,14 -14,0 0,-14z M70,70l14,0 0,14 -14,0 0,-14z M98,70l14,0 0,14 -14,0 0,-14z M140,70l14,0 0,14 -14,0 0,-14z M154,70l14,0 0,14 -14,0 0,-14z M238,70l14,0 0,14 -14,0 0,-14z M266,70l14,0 0,14 -14,0 0,-14z M336,70l14,0 0,14 -14,0 0,-14z M364,70l14,0 0,14 -14,0 0,-14z M378,70l14,0 0,14 -14,0 0,-14z M392,70l14,0 0,14 -14,0 0,-14z M406,70l14,0 0,14 -14,0 0,-14z M490,70l14,0 0,14 -14,0 0,-14z M518,70l14,0 0,14 -14,0 0,-14z M532,70l14,0 0,14 -14,0 0,-14z M546,70l14,0 0,14 -14,0 0,-14z M574,70l14,0 0,14 -14,0 0,-14z M14,84l14,0 0,14 -14,0 0,-14z M98,84l14,0 0,14 -14,0 0,-14z M126,84l14,0 0,14 -14,0 0,-14z M140,84l14,0 0,14 -14,0 0,-14z M168,84l14,0 0,14 -14,0 0,-14z M182,84l14,0 0,14 -14,0 0,-14z M210,84l14,0 0,14 -14,0 0,-14z M224,84l14,0 0,14 -14,0 0,-14z M280,84l14,0 0,14 -14,0 0,-14z M350,84l14,0 0,14 -14,0 0,-14z M378,84l14,0 0,14 -14,0 0,-14z M406,84l14,0 0,14 -14,0 0,-14z M448,84l14,0 0,14 -14,0 0,-14z M462,84l14,0 0,14 -14,0 0,-14z M490,84l14,0 0,14 -14,0 0,-14z M574,84l14,0 0,14 -14,0 0,-14z M14,98l14,0 0,14 -14,0 0,-14z M28,98l14,0 0,14 -14,0 0,-14z M42,98l14,0 0,14 -14,0 0,-14z M56,98l14,0 0,14 -14,0 0,-14z M70,98l14,0 0,14 -14,0 0,-14z M84,98l14,0 0,14 -14,0 0,-14z M98,98l14,0 0,14 -14,0 0,-14z M126,98l14,0 0,14 -14,0 0,-14z M154,98l14,0 0,14 -14,0 0,-14z M182,98l14,0 0,14 -14,0 0,-14z M210,98l14,0 0,14 -14,0 0,-14z M238,98l14,0 0,14 -14,0 0,-14z M266,98l14,0 0,14 -14,0 0,-14z M294,98l14,0 0,14 -14,0 0,-14z M322,98l14,0 0,14 -14,0 0,-14z M350,98l14,0 0,14 -14,0 0,-14z M378,98l14,0 0,14 -14,0 0,-14z M406,98l14,0 0,14 -14,0 0,-14z M434,98l14,0 0,14 -14,0 0,-14z M462,98l14,0 0,14 -14,0 0,-14z M490,98l14,0 0,14 -14,0 0,-14z M504,98l14,0 0,14 -14,0 0,-14z M518,98l14,0 0,14 -14,0 0,-14z M532,98l14,0 0,14 -14,0 0,-14z M546,98l14,0 0,14 -14,0 0,-14z M560,98l14,0 0,14 -14,0 0,-14z M574,98l14,0 0,14 -14,0 0,-14z M168,112l14,0 0,14 -14,0 0,-14z M252,112l14,0 0,14 -14,0 0,-14z M308,112l14,0 0,14 -14,0 0,-14z M322,112l14,0 0,14 -14,0 0,-14z M336,112l14,0 0,14 -14,0 0,-14z M378,112l14,0 0,14 -14,0 0,-14z M420,112l14,0 0,14 -14,0 0,-14z M434,112l14,0 0,14 -14,0 0,-14z M14,126l14,0 0,14 -14,0 0,-14z M28,126l14,0 0,14 -14,0 0,-14z M70,126l14,0 0,14 -14,0 0,-14z M84,126l14,0 0,14 -14,0 0,-14z M98,126l14,0 0,14 -14,0 0,-14z M210,126l14,0 0,14 -14,0 0,-14z M224,126l14,0 0,14 -14,0 0,-14z M294,126l14,0 0,14 -14,0 0,-14z M322,126l14,0 0,14 -14,0 0,-14z M350,126l14,0 0,14 -14,0 0,-14z M378,126l14,0 0,14 -14,0 0,-14z M420,126l14,0 0,14 -14,0 0,-14z M434,126l14,0 0,14 -14,0 0,-14z M462,126l14,0 0,14 -14,0 0,-14z M504,126l14,0 0,14 -14,0 0,-14z M532,126l14,0 0,14 -14,0 0,-14z M546,126l14,0 0,14 -14,0 0,-14z M560,126l14,0 0,14 -14,0 0,-14z M574,126l14,0 0,14 -14,0 0,-14z M28,140l14,0 0,14 -14,0 0,-14z M42,140l14,0 0,14 -14,0 0,-14z M126,140l14,0 0,14 -14,0 0,-14z M168,140l14,0 0,14 -14,0 0,-14z M182,140l14,0 0,14 -14,0 0,-14z M238,140l14,0 0,14 -14,0 0,-14z M252,140l14,0 0,14 -14,0 0,-14z M266,140l14,0 0,14 -14,0 0,-14z M280,140l14,0 0,14 -14,0 0,-14z M322,140l14,0 0,14 -14,0 0,-14z M378,140l14,0 0,14 -14,0 0,-14z M392,140l14,0 0,14 -14,0 0,-14z M406,140l14,0 0,14 -14,0 0,-14z M434,140l14,0 0,14 -14,0 0,-14z M490,140l14,0 0,14 -14,0 0,-14z M504,140l14,0 0,14 -14,0 0,-14z M518,140l14,0 0,14 -14,0 0,-14z M546,140l14,0 0,14 -14,0 0,-14z M574,140l14,0 0,14 -14,0 0,-14z M28,154l14,0 0,14 -14,0 0,-14z M70,154l14,0 0,14 -14,0 0,-14z M98,154l14,0 0,14 -14,0 0,-14z M126,154l14,0 0,14 -14,0 0,-14z M140,154l14,0 0,14 -14,0 0,-14z M154,154l14,0 0,14 -14,0 0,-14z M168,154l14,0 0,14 -14,0 0,-14z M196,154l14,0 0,14 -14,0 0,-14z M210,154l14,0 0,14 -14,0 0,-14z M224,154l14,0 0,14 -14,0 0,-14z M266,154l14,0 0,14 -14,0 0,-14z M294,154l14,0 0,14 -14,0 0,-14z M322,154l14,0 0,14 -14,0 0,-14z M336,154l14,0 0,14 -14,0 0,-14z M350,154l14,0 0,14 -14,0 0,-14z M364,154l14,0 0,14 -14,0 0,-14z M378,154l14,0 0,14 -14,0 0,-14z M392,154l14,0 0,14 -14,0 0,-14z M406,154l14,0 0,14 -14,0 0,-14z M420,154l14,0 0,14 -14,0 0,-14z M462,154l14,0 0,14 -14,0 0,-14z M490,154l14,0 0,14 -14,0 0,-14z M518,154l14,0 0,14 -14,0 0,-14z M574,154l14,0 0,14 -14,0 0,-14z M168,168l14,0 0,14 -14,0 0,-14z M182,168l14,0 0,14 -14,0 0,-14z M196,168l14,0 0,14 -14,0 0,-14z M224,168l14,0 0,14 -14,0 0,-14z M238,168l14,0 0,14 -14,0 0,-14z M252,168l14,0 0,14 -14,0 0,-14z M266,168l14,0 0,14 -14,0 0,-14z M308,168l14,0 0,14 -14,0 0,-14z M322,168l14,0 0,14 -14,0 0,-14z M336,168l14,0 0,14 -14,0 0,-14z M378,168l14,0 0,14 -14,0 0,-14z M406,168l14,0 0,14 -14,0 0,-14z M420,168l14,0 0,14 -14,0 0,-14z M448,168l14,0 0,14 -14,0 0,-14z M462,168l14,0 0,14 -14,0 0,-14z M490,168l14,0 0,14 -14,0 0,-14z M518,168l14,0 0,14 -14,0 0,-14z M532,168l14,0 0,14 -14,0 0,-14z M560,168l14,0 0,14 -14,0 0,-14z M574,168l14,0 0,14 -14,0 0,-14z M14,182l14,0 0,14 -14,0 0,-14z M28,182l14,0 0,14 -14,0 0,-14z M42,182l14,0 0,14 -14,0 0,-14z M56,182l14,0 0,14 -14,0 0,-14z M70,182l14,0 0,14 -14,0 0,-14z M98,182l14,0 0,14 -14,0 0,-14z M168,182l14,0 0,14 -14,0 0,-14z M196,182l14,0 0,14 -14,0 0,-14z M238,182l14,0 0,14 -14,0 0,-14z M252,182l14,0 0,14 -14,0 0,-14z M280,182l14,0 0,14 -14,0 0,-14z M294,182l14,0 0,14 -14,0 0,-14z M308,182l14,0 0,14 -14,0 0,-14z M322,182l14,0 0,14 -14,0 0,-14z M406,182l14,0 0,14 -14,0 0,-14z M448,182l14,0 0,14 -14,0 0,-14z M462,182l14,0 0,14 -14,0 0,-14z M476,182l14,0 0,14 -14,0 0,-14z M560,182l14,0 0,14 -14,0 0,-14z M42,196l14,0 0,14 -14,0 0,-14z M56,196l14,0 0,14 -14,0 0,-14z M70,196l14,0 0,14 -14,0 0,-14z M84,196l14,0 0,14 -14,0 0,-14z M112,196l14,0 0,14 -14,0 0,-14z M126,196l14,0 0,14 -14,0 0,-14z M154,196l14,0 0,14 -14,0 0,-14z M182,196l14,0 0,14 -14,0 0,-14z M196,196l14,0 0,14 -14,0 0,-14z M210,196l14,0 0,14 -14,0 0,-14z M336,196l14,0 0,14 -14,0 0,-14z M392,196l14,0 0,14 -14,0 0,-14z M406,196l14,0 0,14 -14,0 0,-14z M420,196l14,0 0,14 -14,0 0,-14z M448,196l14,0 0,14 -14,0 0,-14z M490,196l14,0 0,14 -14,0 0,-14z M504,196l14,0 0,14 -14,0 0,-14z M518,196l14,0 0,14 -14,0 0,-14z M546,196l14,0 0,14 -14,0 0,-14z M560,196l14,0 0,14 -14,0 0,-14z M574,196l14,0 0,14 -14,0 0,-14z M14,210l14,0 0,14 -14,0 0,-14z M28,210l14,0 0,14 -14,0 0,-14z M56,210l14,0 0,14 -14,0 0,-14z M70,210l14,0 0,14 -14,0 0,-14z M84,210l14,0 0,14 -14,0 0,-14z M98,210l14,0 0,14 -14,0 0,-14z M126,210l14,0 0,14 -14,0 0,-14z M154,210l14,0 0,14 -14,0 0,-14z M168,210l14,0 0,14 -14,0 0,-14z M182,210l14,0 0,14 -14,0 0,-14z M224,210l14,0 0,14 -14,0 0,-14z M266,210l14,0 0,14 -14,0 0,-14z M308,210l14,0 0,14 -14,0 0,-14z M322,210l14,0 0,14 -14,0 0,-14z M336,210l14,0 0,14 -14,0 0,-14z M350,210l14,0 0,14 -14,0 0,-14z M364,210l14,0 0,14 -14,0 0,-14z M378,210l14,0 0,14 -14,0 0,-14z M392,210l14,0 0,14 -14,0 0,-14z M434,210l14,0 0,14 -14,0 0,-14z M462,210l14,0 0,14 -14,0 0,-14z M476,210l14,0 0,14 -14,0 0,-14z M490,210l14,0 0,14 -14,0 0,-14z M504,210l14,0 0,14 -14,0 0,-14z M518,210l14,0 0,14 -14,0 0,-14z M546,210l14,0 0,14 -14,0 0,-14z M574,210l14,0 0,14 -14,0 0,-14z M56,224l14,0 0,14 -14,0 0,-14z M126,224l14,0 0,14 -14,0 0,-14z M140,224l14,0 0,14 -14,0 0,-14z M154,224l14,0 0,14 -14,0 0,-14z M168,224l14,0 0,14 -14,0 0,-14z M224,224l14,0 0,14 -14,0 0,-14z M238,224l14,0 0,14 -14,0 0,-14z M252,224l14,0 0,14 -14,0 0,-14z M266,224l14,0 0,14 -14,0 0,-14z M294,224l14,0 0,14 -14,0 0,-14z M308,224l14,0 0,14 -14,0 0,-14z M336,224l14,0 0,14 -14,0 0,-14z M350,224l14,0 0,14 -14,0 0,-14z M378,224l14,0 0,14 -14,0 0,-14z M392,224l14,0 0,14 -14,0 0,-14z M420,224l14,0 0,14 -14,0 0,-14z M462,224l14,0 0,14 -14,0 0,-14z M532,224l14,0 0,14 -14,0 0,-14z M560,224l14,0 0,14 -14,0 0,-14z M574,224l14,0 0,14 -14,0 0,-14z M14,238l14,0 0,14 -14,0 0,-14z M28,238l14,0 0,14 -14,0 0,-14z M42,238l14,0 0,14 -14,0 0,-14z M84,238l14,0 0,14 -14,0 0,-14z M98,238l14,0 0,14 -14,0 0,-14z M126,238l14,0 0,14 -14,0 0,-14z M210,238l14,0 0,14 -14,0 0,-14z M280,238l14,0 0,14 -14,0 0,-14z M294,238l14,0 0,14 -14,0 0,-14z M322,238l14,0 0,14 -14,0 0,-14z M336,238l14,0 0,14 -14,0 0,-14z M350,238l14,0 0,14 -14,0 0,-14z M406,238l14,0 0,14 -14,0 0,-14z M420,238l14,0 0,14 -14,0 0,-14z M448,238l14,0 0,14 -14,0 0,-14z M462,238l14,0 0,14 -14,0 0,-14z M476,238l14,0 0,14 -14,0 0,-14z M532,238l14,0 0,14 -14,0 0,-14z M560,238l14,0 0,14 -14,0 0,-14z M28,252l14,0 0,14 -14,0 0,-14z M42,252l14,0 0,14 -14,0 0,-14z M84,252l14,0 0,14 -14,0 0,-14z M126,252l14,0 0,14 -14,0 0,-14z M140,252l14,0 0,14 -14,0 0,-14z M168,252l14,0 0,14 -14,0 0,-14z M196,252l14,0 0,14 -14,0 0,-14z M238,252l14,0 0,14 -14,0 0,-14z M266,252l14,0 0,14 -14,0 0,-14z M280,252l14,0 0,14 -14,0 0,-14z M308,252l14,0 0,14 -14,0 0,-14z M364,252l14,0 0,14 -14,0 0,-14z M378,252l14,0 0,14 -14,0 0,-14z M392,252l14,0 0,14 -14,0 0,-14z M406,252l14,0 0,14 -14,0 0,-14z M434,252l14,0 0,14 -14,0 0,-14z M476,252l14,0 0,14 -14,0 0,-14z M490,252l14,0 0,14 -14,0 0,-14z M504,252l14,0 0,14 -14,0 0,-14z M518,252l14,0 0,14 -14,0 0,-14z M532,252l14,0 0,14 -14,0 0,-14z M546,252l14,0 0,14 -14,0 0,-14z M560,252l14,0 0,14 -14,0 0,-14z M574,252l14,0 0,14 -14,0 0,-14z M28,266l14,0 0,14 -14,0 0,-14z M42,266l14,0 0,14 -14,0 0,-14z M84,266l14,0 0,14 -14,0 0,-14z M98,266l14,0 0,14 -14,0 0,-14z M112,266l14,0 0,14 -14,0 0,-14z M126,266l14,0 0,14 -14,0 0,-14z M168,266l14,0 0,14 -14,0 0,-14z M224,266l14,0 0,14 -14,0 0,-14z M294,266l14,0 0,14 -14,0 0,-14z M308,266l14,0 0,14 -14,0 0,-14z M336,266l14,0 0,14 -14,0 0,-14z M364,266l14,0 0,14 -14,0 0,-14z M392,266l14,0 0,14 -14,0 0,-14z M462,266l14,0 0,14 -14,0 0,-14z M504,266l14,0 0,14 -14,0 0,-14z M574,266l14,0 0,14 -14,0 0,-14z M28,280l14,0 0,14 -14,0 0,-14z M42,280l14,0 0,14 -14,0 0,-14z M56,280l14,0 0,14 -14,0 0,-14z M84,280l14,0 0,14 -14,0 0,-14z M126,280l14,0 0,14 -14,0 0,-14z M154,280l14,0 0,14 -14,0 0,-14z M168,280l14,0 0,14 -14,0 0,-14z M210,280l14,0 0,14 -14,0 0,-14z M252,280l14,0 0,14 -14,0 0,-14z M308,280l14,0 0,14 -14,0 0,-14z M322,280l14,0 0,14 -14,0 0,-14z M350,280l14,0 0,14 -14,0 0,-14z M420,280l14,0 0,14 -14,0 0,-14z M434,280l14,0 0,14 -14,0 0,-14z M448,280l14,0 0,14 -14,0 0,-14z M462,280l14,0 0,14 -14,0 0,-14z M476,280l14,0 0,14 -14,0 0,-14z M532,280l14,0 0,14 -14,0 0,-14z M574,280l14,0 0,14 -14,0 0,-14z M14,294l14,0 0,14 -14,0 0,-14z M56,294l14,0 0,14 -14,0 0,-14z M70,294l14,0 0,14 -14,0 0,-14z M98,294l14,0 0,14 -14,0 0,-14z M112,294l14,0 0,14 -14,0 0,-14z M182,294l14,0 0,14 -14,0 0,-14z M196,294l14,0 0,14 -14,0 0,-14z M210,294l14,0 0,14 -14,0 0,-14z M266,294l14,0 0,14 -14,0 0,-14z M294,294l14,0 0,14 -14,0 0,-14z M308,294l14,0 0,14 -14,0 0,-14z M322,294l14,0 0,14 -14,0 0,-14z M392,294l14,0 0,14 -14,0 0,-14z M420,294l14,0 0,14 -14,0 0,-14z M476,294l14,0 0,14 -14,0 0,-14z M504,294l14,0 0,14 -14,0 0,-14z M14,308l14,0 0,14 -14,0 0,-14z M28,308l14,0 0,14 -14,0 0,-14z M42,308l14,0 0,14 -14,0 0,-14z M56,308l14,0 0,14 -14,0 0,-14z M112,308l14,0 0,14 -14,0 0,-14z M126,308l14,0 0,14 -14,0 0,-14z M154,308l14,0 0,14 -14,0 0,-14z M196,308l14,0 0,14 -14,0 0,-14z M238,308l14,0 0,14 -14,0 0,-14z M266,308l14,0 0,14 -14,0 0,-14z M308,308l14,0 0,14 -14,0 0,-14z M336,308l14,0 0,14 -14,0 0,-14z M350,308l14,0 0,14 -14,0 0,-14z M364,308l14,0 0,14 -14,0 0,-14z M378,308l14,0 0,14 -14,0 0,-14z M392,308l14,0 0,14 -14,0 0,-14z M406,308l14,0 0,14 -14,0 0,-14z M448,308l14,0 0,14 -14,0 0,-14z M476,308l14,0 0,14 -14,0 0,-14z M490,308l14,0 0,14 -14,0 0,-14z M518,308l14,0 0,14 -14,0 0,-14z M532,308l14,0 0,14 -14,0 0,-14z M546,308l14,0 0,14 -14,0 0,-14z M560,308l14,0 0,14 -14,0 0,-14z M574,308l14,0 0,14 -14,0 0,-14z M28,322l14,0 0,14 -14,0 0,-14z M98,322l14,0 0,14 -14,0 0,-14z M126,322l14,0 0,14 -14,0 0,-14z M154,322l14,0 0,14 -14,0 0,-14z M196,322l14,0 0,14 -14,0 0,-14z M238,322l14,0 0,14 -14,0 0,-14z M266,322l14,0 0,14 -14,0 0,-14z M294,322l14,0 0,14 -14,0 0,-14z M308,322l14,0 0,14 -14,0 0,-14z M336,322l14,0 0,14 -14,0 0,-14z M378,322l14,0 0,14 -14,0 0,-14z M392,322l14,0 0,14 -14,0 0,-14z M462,322l14,0 0,14 -14,0 0,-14z M476,322l14,0 0,14 -14,0 0,-14z M490,322l14,0 0,14 -14,0 0,-14z M504,322l14,0 0,14 -14,0 0,-14z M518,322l14,0 0,14 -14,0 0,-14z M532,322l14,0 0,14 -14,0 0,-14z M546,322l14,0 0,14 -14,0 0,-14z M574,322l14,0 0,14 -14,0 0,-14z M14,336l14,0 0,14 -14,0 0,-14z M28,336l14,0 0,14 -14,0 0,-14z M42,336l14,0 0,14 -14,0 0,-14z M56,336l14,0 0,14 -14,0 0,-14z M112,336l14,0 0,14 -14,0 0,-14z M126,336l14,0 0,14 -14,0 0,-14z M154,336l14,0 0,14 -14,0 0,-14z M182,336l14,0 0,14 -14,0 0,-14z M210,336l14,0 0,14 -14,0 0,-14z M252,336l14,0 0,14 -14,0 0,-14z M294,336l14,0 0,14 -14,0 0,-14z M308,336l14,0 0,14 -14,0 0,-14z M322,336l14,0 0,14 -14,0 0,-14z M336,336l14,0 0,14 -14,0 0,-14z M392,336l14,0 0,14 -14,0 0,-14z M406,336l14,0 0,14 -14,0 0,-14z M420,336l14,0 0,14 -14,0 0,-14z M434,336l14,0 0,14 -14,0 0,-14z M504,336l14,0 0,14 -14,0 0,-14z M532,336l14,0 0,14 -14,0 0,-14z M560,336l14,0 0,14 -14,0 0,-14z M574,336l14,0 0,14 -14,0 0,-14z M28,350l14,0 0,14 -14,0 0,-14z M42,350l14,0 0,14 -14,0 0,-14z M56,350l14,0 0,14 -14,0 0,-14z M84,350l14,0 0,14 -14,0 0,-14z M98,350l14,0 0,14 -14,0 0,-14z M112,350l14,0 0,14 -14,0 0,-14z M126,350l14,0 0,14 -14,0 0,-14z M140,350l14,0 0,14 -14,0 0,-14z M154,350l14,0 0,14 -14,0 0,-14z M168,350l14,0 0,14 -14,0 0,-14z M210,350l14,0 0,14 -14,0 0,-14z M224,350l14,0 0,14 -14,0 0,-14z M238,350l14,0 0,14 -14,0 0,-14z M252,350l14,0 0,14 -14,0 0,-14z M280,350l14,0 0,14 -14,0 0,-14z M294,350l14,0 0,14 -14,0 0,-14z M322,350l14,0 0,14 -14,0 0,-14z M350,350l14,0 0,14 -14,0 0,-14z M378,350l14,0 0,14 -14,0 0,-14z M392,350l14,0 0,14 -14,0 0,-14z M420,350l14,0 0,14 -14,0 0,-14z M462,350l14,0 0,14 -14,0 0,-14z M532,350l14,0 0,14 -14,0 0,-14z M546,350l14,0 0,14 -14,0 0,-14z M574,350l14,0 0,14 -14,0 0,-14z M28,364l14,0 0,14 -14,0 0,-14z M42,364l14,0 0,14 -14,0 0,-14z M70,364l14,0 0,14 -14,0 0,-14z M112,364l14,0 0,14 -14,0 0,-14z M168,364l14,0 0,14 -14,0 0,-14z M224,364l14,0 0,14 -14,0 0,-14z M252,364l14,0 0,14 -14,0 0,-14z M280,364l14,0 0,14 -14,0 0,-14z M308,364l14,0 0,14 -14,0 0,-14z M322,364l14,0 0,14 -14,0 0,-14z M378,364l14,0 0,14 -14,0 0,-14z M392,364l14,0 0,14 -14,0 0,-14z M406,364l14,0 0,14 -14,0 0,-14z M434,364l14,0 0,14 -14,0 0,-14z M490,364l14,0 0,14 -14,0 0,-14z M504,364l14,0 0,14 -14,0 0,-14z M518,364l14,0 0,14 -14,0 0,-14z M532,364l14,0 0,14 -14,0 0,-14z M546,364l14,0 0,14 -14,0 0,-14z M560,364l14,0 0,14 -14,0 0,-14z M574,364l14,0 0,14 -14,0 0,-14z M28,378l14,0 0,14 -14,0 0,-14z M42,378l14,0 0,14 -14,0 0,-14z M56,378l14,0 0,14 -14,0 0,-14z M98,378l14,0 0,14 -14,0 0,-14z M168,378l14,0 0,14 -14,0 0,-14z M196,378l14,0 0,14 -14,0 0,-14z M210,378l14,0 0,14 -14,0 0,-14z M224,378l14,0 0,14 -14,0 0,-14z M238,378l14,0 0,14 -14,0 0,-14z M266,378l14,0 0,14 -14,0 0,-14z M308,378l14,0 0,14 -14,0 0,-14z M322,378l14,0 0,14 -14,0 0,-14z M336,378l14,0 0,14 -14,0 0,-14z M350,378l14,0 0,14 -14,0 0,-14z M378,378l14,0 0,14 -14,0 0,-14z M392,378l14,0 0,14 -14,0 0,-14z M406,378l14,0 0,14 -14,0 0,-14z M434,378l14,0 0,14 -14,0 0,-14z M462,378l14,0 0,14 -14,0 0,-14z M476,378l14,0 0,14 -14,0 0,-14z M518,378l14,0 0,14 -14,0 0,-14z M532,378l14,0 0,14 -14,0 0,-14z M546,378l14,0 0,14 -14,0 0,-14z M560,378l14,0 0,14 -14,0 0,-14z M574,378l14,0 0,14 -14,0 0,-14z M70,392l14,0 0,14 -14,0 0,-14z M126,392l14,0 0,14 -14,0 0,-14z M154,392l14,0 0,14 -14,0 0,-14z M168,392l14,0 0,14 -14,0 0,-14z M182,392l14,0 0,14 -14,0 0,-14z M196,392l14,0 0,14 -14,0 0,-14z M238,392l14,0 0,14 -14,0 0,-14z M280,392l14,0 0,14 -14,0 0,-14z M308,392l14,0 0,14 -14,0 0,-14z M336,392l14,0 0,14 -14,0 0,-14z M378,392l14,0 0,14 -14,0 0,-14z M420,392l14,0 0,14 -14,0 0,-14z M448,392l14,0 0,14 -14,0 0,-14z M462,392l14,0 0,14 -14,0 0,-14z M490,392l14,0 0,14 -14,0 0,-14z M518,392l14,0 0,14 -14,0 0,-14z M574,392l14,0 0,14 -14,0 0,-14z M56,406l14,0 0,14 -14,0 0,-14z M98,406l14,0 0,14 -14,0 0,-14z M140,406l14,0 0,14 -14,0 0,-14z M196,406l14,0 0,14 -14,0 0,-14z M224,406l14,0 0,14 -14,0 0,-14z M238,406l14,0 0,14 -14,0 0,-14z M294,406l14,0 0,14 -14,0 0,-14z M308,406l14,0 0,14 -14,0 0,-14z M322,406l14,0 0,14 -14,0 0,-14z M378,406l14,0 0,14 -14,0 0,-14z M420,406l14,0 0,14 -14,0 0,-14z M476,406l14,0 0,14 -14,0 0,-14z M518,406l14,0 0,14 -14,0 0,-14z M14,420l14,0 0,14 -14,0 0,-14z M28,420l14,0 0,14 -14,0 0,-14z M56,420l14,0 0,14 -14,0 0,-14z M112,420l14,0 0,14 -14,0 0,-14z M140,420l14,0 0,14 -14,0 0,-14z M154,420l14,0 0,14 -14,0 0,-14z M182,420l14,0 0,14 -14,0 0,-14z M196,420l14,0 0,14 -14,0 0,-14z M210,420l14,0 0,14 -14,0 0,-14z M266,420l14,0 0,14 -14,0 0,-14z M322,420l14,0 0,14 -14,0 0,-14z M336,420l14,0 0,14 -14,0 0,-14z M392,420l14,0 0,14 -14,0 0,-14z M406,420l14,0 0,14 -14,0 0,-14z M420,420l14,0 0,14 -14,0 0,-14z M434,420l14,0 0,14 -14,0 0,-14z M448,420l14,0 0,14 -14,0 0,-14z M476,420l14,0 0,14 -14,0 0,-14z M490,420l14,0 0,14 -14,0 0,-14z M504,420l14,0 0,14 -14,0 0,-14z M518,420l14,0 0,14 -14,0 0,-14z M546,420l14,0 0,14 -14,0 0,-14z M574,420l14,0 0,14 -14,0 0,-14z M56,434l14,0 0,14 -14,0 0,-14z M70,434l14,0 0,14 -14,0 0,-14z M98,434l14,0 0,14 -14,0 0,-14z M126,434l14,0 0,14 -14,0 0,-14z M168,434l14,0 0,14 -14,0 0,-14z M182,434l14,0 0,14 -14,0 0,-14z M196,434l14,0 0,14 -14,0 0,-14z M210,434l14,0 0,14 -14,0 0,-14z M224,434l14,0 0,14 -14,0 0,-14z M266,434l14,0 0,14 -14,0 0,-14z M294,434l14,0 0,14 -14,0 0,-14z M322,434l14,0 0,14 -14,0 0,-14z M336,434l14,0 0,14 -14,0 0,-14z M350,434l14,0 0,14 -14,0 0,-14z M364,434l14,0 0,14 -14,0 0,-14z M378,434l14,0 0,14 -14,0 0,-14z M392,434l14,0 0,14 -14,0 0,-14z M406,434l14,0 0,14 -14,0 0,-14z M434,434l14,0 0,14 -14,0 0,-14z M462,434l14,0 0,14 -14,0 0,-14z M532,434l14,0 0,14 -14,0 0,-14z M546,434l14,0 0,14 -14,0 0,-14z M574,434l14,0 0,14 -14,0 0,-14z M70,448l14,0 0,14 -14,0 0,-14z M168,448l14,0 0,14 -14,0 0,-14z M224,448l14,0 0,14 -14,0 0,-14z M238,448l14,0 0,14 -14,0 0,-14z M252,448l14,0 0,14 -14,0 0,-14z M266,448l14,0 0,14 -14,0 0,-14z M294,448l14,0 0,14 -14,0 0,-14z M308,448l14,0 0,14 -14,0 0,-14z M378,448l14,0 0,14 -14,0 0,-14z M420,448l14,0 0,14 -14,0 0,-14z M434,448l14,0 0,14 -14,0 0,-14z M476,448l14,0 0,14 -14,0 0,-14z M504,448l14,0 0,14 -14,0 0,-14z M532,448l14,0 0,14 -14,0 0,-14z M560,448l14,0 0,14 -14,0 0,-14z M14,462l14,0 0,14 -14,0 0,-14z M28,462l14,0 0,14 -14,0 0,-14z M42,462l14,0 0,14 -14,0 0,-14z M70,462l14,0 0,14 -14,0 0,-14z M84,462l14,0 0,14 -14,0 0,-14z M98,462l14,0 0,14 -14,0 0,-14z M182,462l14,0 0,14 -14,0 0,-14z M238,462l14,0 0,14 -14,0 0,-14z M252,462l14,0 0,14 -14,0 0,-14z M266,462l14,0 0,14 -14,0 0,-14z M294,462l14,0 0,14 -14,0 0,-14z M308,462l14,0 0,14 -14,0 0,-14z M322,462l14,0 0,14 -14,0 0,-14z M420,462l14,0 0,14 -14,0 0,-14z M462,462l14,0 0,14 -14,0 0,-14z M476,462l14,0 0,14 -14,0 0,-14z M490,462l14,0 0,14 -14,0 0,-14z M504,462l14,0 0,14 -14,0 0,-14z M518,462l14,0 0,14 -14,0 0,-14z M560,462l14,0 0,14 -14,0 0,-14z M126,476l14,0 0,14 -14,0 0,-14z M196,476l14,0 0,14 -14,0 0,-14z M210,476l14,0 0,14 -14,0 0,-14z M238,476l14,0 0,14 -14,0 0,-14z M280,476l14,0 0,14 -14,0 0,-14z M336,476l14,0 0,14 -14,0 0,-14z M350,476l14,0 0,14 -14,0 0,-14z M378,476l14,0 0,14 -14,0 0,-14z M392,476l14,0 0,14 -14,0 0,-14z M406,476l14,0 0,14 -14,0 0,-14z M434,476l14,0 0,14 -14,0 0,-14z M448,476l14,0 0,14 -14,0 0,-14z M462,476l14,0 0,14 -14,0 0,-14z M518,476l14,0 0,14 -14,0 0,-14z M532,476l14,0 0,14 -14,0 0,-14z M560,476l14,0 0,14 -14,0 0,-14z M574,476l14,0 0,14 -14,0 0,-14z M14,490l14,0 0,14 -14,0 0,-14z M28,490l14,0 0,14 -14,0 0,-14z M42,490l14,0 0,14 -14,0 0,-14z M56,490l14,0 0,14 -14,0 0,-14z M70,490l14,0 0,14 -14,0 0,-14z M84,490l14,0 0,14 -14,0 0,-14z M98,490l14,0 0,14 -14,0 0,-14z M140,490l14,0 0,14 -14,0 0,-14z M168,490l14,0 0,14 -14,0 0,-14z M224,490l14,0 0,14 -14,0 0,-14z M238,490l14,0 0,14 -14,0 0,-14z M252,490l14,0 0,14 -14,0 0,-14z M294,490l14,0 0,14 -14,0 0,-14z M322,490l14,0 0,14 -14,0 0,-14z M336,490l14,0 0,14 -14,0 0,-14z M350,490l14,0 0,14 -14,0 0,-14z M364,490l14,0 0,14 -14,0 0,-14z M378,490l14,0 0,14 -14,0 0,-14z M392,490l14,0 0,14 -14,0 0,-14z M434,490l14,0 0,14 -14,0 0,-14z M448,490l14,0 0,14 -14,0 0,-14z M462,490l14,0 0,14 -14,0 0,-14z M490,490l14,0 0,14 -14,0 0,-14z M518,490l14,0 0,14 -14,0 0,-14z M546,490l14,0 0,14 -14,0 0,-14z M560,490l14,0 0,14 -14,0 0,-14z M574,490l14,0 0,14 -14,0 0,-14z M14,504l14,0 0,14 -14,0 0,-14z M98,504l14,0 0,14 -14,0 0,-14z M126,504l14,0 0,14 -14,0 0,-14z M140,504l14,0 0,14 -14,0 0,-14z M182,504l14,0 0,14 -14,0 0,-14z M210,504l14,0 0,14 -14,0 0,-14z M238,504l14,0 0,14 -14,0 0,-14z M252,504l14,0 0,14 -14,0 0,-14z M266,504l14,0 0,14 -14,0 0,-14z M294,504l14,0 0,14 -14,0 0,-14z M308,504l14,0 0,14 -14,0 0,-14z M350,504l14,0 0,14 -14,0 0,-14z M378,504l14,0 0,14 -14,0 0,-14z M420,504l14,0 0,14 -14,0 0,-14z M434,504l14,0 0,14 -14,0 0,-14z M448,504l14,0 0,14 -14,0 0,-14z M462,504l14,0 0,14 -14,0 0,-14z M518,504l14,0 0,14 -14,0 0,-14z M14,518l14,0 0,14 -14,0 0,-14z M42,518l14,0 0,14 -14,0 0,-14z M56,518l14,0 0,14 -14,0 0,-14z M70,518l14,0 0,14 -14,0 0,-14z M98,518l14,0 0,14 -14,0 0,-14z M126,518l14,0 0,14 -14,0 0,-14z M140,518l14,0 0,14 -14,0 0,-14z M154,518l14,0 0,14 -14,0 0,-14z M182,518l14,0 0,14 -14,0 0,-14z M196,518l14,0 0,14 -14,0 0,-14z M210,518l14,0 0,14 -14,0 0,-14z M266,518l14,0 0,14 -14,0 0,-14z M280,518l14,0 0,14 -14,0 0,-14z M294,518l14,0 0,14 -14,0 0,-14z M308,518l14,0 0,14 -14,0 0,-14z M322,518l14,0 0,14 -14,0 0,-14z M336,518l14,0 0,14 -14,0 0,-14z M392,518l14,0 0,14 -14,0 0,-14z M406,518l14,0 0,14 -14,0 0,-14z M420,518l14,0 0,14 -14,0 0,-14z M434,518l14,0 0,14 -14,0 0,-14z M448,518l14,0 0,14 -14,0 0,-14z M462,518l14,0 0,14 -14,0 0,-14z M476,518l14,0 0,14 -14,0 0,-14z M490,518l14,0 0,14 -14,0 0,-14z M504,518l14,0 0,14 -14,0 0,-14z M518,518l14,0 0,14 -14,0 0,-14z M532,518l14,0 0,14 -14,0 0,-14z M560,518l14,0 0,14 -14,0 0,-14z M14,532l14,0 0,14 -14,0 0,-14z M42,532l14,0 0,14 -14,0 0,-14z M56,532l14,0 0,14 -14,0 0,-14z M70,532l14,0 0,14 -14,0 0,-14z M98,532l14,0 0,14 -14,0 0,-14z M196,532l14,0 0,14 -14,0 0,-14z M238,532l14,0 0,14 -14,0 0,-14z M294,532l14,0 0,14 -14,0 0,-14z M336,532l14,0 0,14 -14,0 0,-14z M364,532l14,0 0,14 -14,0 0,-14z M392,532l14,0 0,14 -14,0 0,-14z M406,532l14,0 0,14 -14,0 0,-14z M420,532l14,0 0,14 -14,0 0,-14z M434,532l14,0 0,14 -14,0 0,-14z M476,532l14,0 0,14 -14,0 0,-14z M546,532l14,0 0,14 -14,0 0,-14z M560,532l14,0 0,14 -14,0 0,-14z M574,532l14,0 0,14 -14,0 0,-14z M14,546l14,0 0,14 -14,0 0,-14z M42,546l14,0 0,14 -14,0 0,-14z M56,546l14,0 0,14 -14,0 0,-14z M70,546l14,0 0,14 -14,0 0,-14z M98,546l14,0 0,14 -14,0 0,-14z M140,546l14,0 0,14 -14,0 0,-14z M154,546l14,0 0,14 -14,0 0,-14z M196,546l14,0 0,14 -14,0 0,-14z M210,546l14,0 0,14 -14,0 0,-14z M238,546l14,0 0,14 -14,0 0,-14z M336,546l14,0 0,14 -14,0 0,-14z M350,546l14,0 0,14 -14,0 0,-14z M378,546l14,0 0,14 -14,0 0,-14z M392,546l14,0 0,14 -14,0 0,-14z M420,546l14,0 0,14 -14,0 0,-14z M434,546l14,0 0,14 -14,0 0,-14z M448,546l14,0 0,14 -14,0 0,-14z M476,546l14,0 0,14 -14,0 0,-14z M504,546l14,0 0,14 -14,0 0,-14z M532,546l14,0 0,14 -14,0 0,-14z M574,546l14,0 0,14 -14,0 0,-14z M14,560l14,0 0,14 -14,0 0,-14z M98,560l14,0 0,14 -14,0 0,-14z M126,560l14,0 0,14 -14,0 0,-14z M182,560l14,0 0,14 -14,0 0,-14z M210,560l14,0 0,14 -14,0 0,-14z M252,560l14,0 0,14 -14,0 0,-14z M308,560l14,0 0,14 -14,0 0,-14z M322,560l14,0 0,14 -14,0 0,-14z M336,560l14,0 0,14 -14,0 0,-14z M350,560l14,0 0,14 -14,0 0,-14z M378,560l14,0 0,14 -14,0 0,-14z M420,560l14,0 0,14 -14,0 0,-14z M434,560l14,0 0,14 -14,0 0,-14z M448,560l14,0 0,14 -14,0 0,-14z M462,560l14,0 0,14 -14,0 0,-14z M476,560l14,0 0,14 -14,0 0,-14z M518,560l14,0 0,14 -14,0 0,-14z M532,560l14,0 0,14 -14,0 0,-14z M560,560l14,0 0,14 -14,0 0,-14z M574,560l14,0 0,14 -14,0 0,-14z M14,574l14,0 0,14 -14,0 0,-14z M28,574l14,0 0,14 -14,0 0,-14z M42,574l14,0 0,14 -14,0 0,-14z M56,574l14,0 0,14 -14,0 0,-14z M70,574l14,0 0,14 -14,0 0,-14z M84,574l14,0 0,14 -14,0 0,-14z M98,574l14,0 0,14 -14,0 0,-14z M126,574l14,0 0,14 -14,0 0,-14z M154,574l14,0 0,14 -14,0 0,-14z M168,574l14,0 0,14 -14,0 0,-14z M224,574l14,0 0,14 -14,0 0,-14z M238,574l14,0 0,14 -14,0 0,-14z M252,574l14,0 0,14 -14,0 0,-14z M266,574l14,0 0,14 -14,0 0,-14z M294,574l14,0 0,14 -14,0 0,-14z M308,574l14,0 0,14 -14,0 0,-14z M322,574l14,0 0,14 -14,0 0,-14z M350,574l14,0 0,14 -14,0 0,-14z M378,574l14,0 0,14 -14,0 0,-14z M392,574l14,0 0,14 -14,0 0,-14z M420,574l14,0 0,14 -14,0 0,-14z M434,574l14,0 0,14 -14,0 0,-14z M462,574l14,0 0,14 -14,0 0,-14z M476,574l14,0 0,14 -14,0 0,-14z M504,574l14,0 0,14 -14,0 0,-14z M560,574l14,0 0,14 -14,0 0,-14z " stroke="transparent" fill="#000000"/></svg>